<svg id="Capa_1" enable-background="new 0 0 512 512" height="512" viewBox="0 0 512 512" width="512" xmlns="http://www.w3.org/2000/svg"><g><g><circle cx="253.363" cy="324.013" fill="#fe255f" r="187.987"/><path d="m321.07 148.595c24.98 18.017 45.296 42.094 58.81 70.07-10.55 9.747-18.037 22.573-21.184 36.782-3.364 15.188-.612 30.777 7.748 43.895 7.201 11.297 17.823 19.586 30.332 23.822-3.463 27.099-12.772 52.365-26.607 74.513-14.24-4.317-30.167-2.913-43.96 5.227-19.679 11.61-27.424 35.812-19.061 56.376-9.611 5.702-19.774 10.569-30.4 14.487-16.972-32.372-11.466-72.198 13.944-98.703 14.545-14.323 24.991-32.366 30.22-52.645 6.182-23.974 2.658-48.92-9.923-70.244-12.58-21.323-32.712-36.471-56.686-42.653-40.392-10.421-81.729 13.971-92.145 54.364-8.54 33.115 11.455 67.003 44.569 75.542 13.221 3.411 26.979 1.467 38.739-5.472 11.759-6.938 20.114-18.041 23.523-31.262 5.836-22.636-7.83-45.799-30.465-51.636-4.214-1.088-8.517 1.633-9.269 6.014-.667 3.883 1.955 7.556 5.762 8.573 14.484 3.872 23.198 18.757 19.447 33.304-2.419 9.383-8.364 17.256-16.731 22.153-8.489 4.969-23.067 5.707-32.261 2.211-22.074-8.392-34.82-32.292-28.789-55.684 4.045-15.687 13.958-28.86 27.911-37.092 13.953-8.231 30.276-10.538 45.964-6.493 20.094 5.182 36.968 17.878 47.512 35.751 10.545 17.873 13.498 38.782 8.316 58.876-6.602 25.602-22.778 47.101-45.551 60.537-22.772 13.435-49.412 17.199-75.016 10.597-29.456-7.596-55.125-25.589-72.278-50.664-13.329-19.485-20.829-42.183-21.855-65.42-.177-4.019-3.467-7.192-7.49-7.192-4.27 0-7.692 3.56-7.505 7.826 1.144 26.026 9.547 51.442 24.468 73.255 19.204 28.074 47.939 48.217 80.913 56.72 9.492 2.448 19.106 3.658 28.657 3.658 16.639 0 33.08-3.686 48.33-10.893-10.254 25.896-9.485 55.484 3.226 81.327-15.854 4.401-32.556 6.762-49.811 6.762-29.546 0-57.495-6.896-82.302-19.182 32.737 28.428 75.397 45.722 122.088 45.989 102.917.59 187.727-82.562 189.07-185.472 1.06-81.029-49.153-150.474-120.26-177.924zm-.992 302.284c-3.919-13.14 1.424-27.783 13.753-35.056 8.54-5.038 18.204-6.527 27.279-4.929-11.531 15.345-25.38 28.848-41.032 39.985zm59.015-159.598c-6.207-9.74-8.25-21.313-5.753-32.59 2.088-9.427 6.598-18.086 12.931-25.175 7.762 20.472 12.015 42.67 12.015 65.86 0 2.76-.072 5.504-.191 8.235-7.761-3.405-14.344-9.023-19.002-16.33z" fill="#e01152"/><path d="m126.933 442.052c6.472-5.185 7.493-14.615 2.38-21.144-20.932-26.737-33.425-60.384-33.425-96.898 0-48.578 22.115-92.088 56.804-120.998 5.341-4.451 7.034-11.92 4.048-18.198-.047-.099-.094-.198-.142-.298-4.262-8.957-15.812-11.391-23.436-5.044-41.42 34.482-67.786 86.429-67.786 144.538 0 43.681 14.905 83.875 39.898 115.791 5.205 6.647 14.832 7.723 21.42 2.443.08-.064.16-.128.239-.192z" fill="#fc709b"/><path d="m97.063 304.86c-3.1-10.1-4.91-20.56-5.38-31.14-.17-4.02-3.46-7.19-7.49-7.19-4.16 0-7.51 3.37-7.51 7.49 0 .11 0 .23.01.34 1.02 23.35 7.9 46.22 20.09 66.42-.59-5.51-.89-11.11-.89-16.77 0-6.48.39-12.87 1.17-19.15z" fill="#fe255f"/><path d="m102.236 212.211c-3.163 4.27-6.15 8.678-8.949 13.215-4.62 7.487-1.849 17.332 5.968 21.371 7.124 3.681 15.936 1.337 20.16-5.48 2.277-3.674 4.7-7.248 7.262-10.713 4.76-6.44 3.692-15.477-2.343-20.74-6.647-5.795-16.85-4.738-22.098 2.347z" fill="#f7a6c1"/><path d="m253.363 93.356c-50.69 0-95.957-32.146-112.641-79.99-1.828-5.243.94-10.975 6.183-12.803 5.241-1.829 10.975.94 12.803 6.183 13.871 39.778 51.508 66.504 93.656 66.504v20.106z" fill="#02718c"/><path d="m156.633 25.608c-.061.04-.122.08-.182.121-4.564 3.021-5.84 9.173-2.833 13.747 6.111 9.295 13.455 17.62 21.761 24.788 4.69 4.047 11.883 2.894 15.06-2.424.034-.058.069-.115.103-.173 2.463-4.122 1.632-9.431-2.003-12.569-6.892-5.948-12.985-12.857-18.059-20.569-3.045-4.63-9.225-5.979-13.847-2.921z" fill="#0d8ba0"/><path d="m288.778 146.024h-70.831v-87.056c0-8.328 6.751-15.08 15.08-15.08h40.671c8.328 0 15.08 6.751 15.08 15.08z" fill="#ffaf40"/><path d="m244.664 83.724v-10.155c0-7.378-5.981-13.358-13.358-13.358-7.378 0-13.358 5.981-13.358 13.358v10.155c0 7.378 5.981 13.358 13.358 13.358 7.377 0 13.358-5.98 13.358-13.358z" fill="#ffc751"/><path d="m288.78 58.973v87.051h-70.835v-29.205c29.305-2.001 52.468-26.4 52.468-56.217 0-5.821-.885-11.431-2.523-16.709h5.811c8.324 0 15.079 6.746 15.079 15.08z" fill="#ff993a"/><path d="m316.011 150.014h-125.296c-3.267 0-5.666-3.068-4.878-6.239l6.608-26.595c1.114-4.482 5.138-7.629 9.757-7.629h102.325c4.619 0 8.643 3.147 9.757 7.629l6.608 26.595c.786 3.172-1.613 6.239-4.881 6.239z" fill="#ffe059"/><path d="m259.826 109.552h-32.765c-8.052 0-14.58 6.528-14.58 14.58 0 8.052 6.528 14.58 14.58 14.58h32.765c8.052 0 14.58-6.528 14.58-14.58 0-8.052-6.528-14.58-14.58-14.58z" fill="#fff370"/><path d="m262.462 72.833c38.256-3.519 71.465-29.021 84.424-65.709 1.843-5.218 7.418-8.332 12.688-6.643 5.402 1.732 8.286 7.561 6.43 12.885-15.458 44.329-55.453 75.182-101.565 79.476-5.931.552-11.076-4.051-11.076-10.007 0-5.183 3.938-9.528 9.099-10.002z" fill="#12adb5"/><path d="m318.502 48.81c-7.773 6.771-16.57 12.318-26.077 16.402-4.298 1.847-6.763 6.4-5.808 10.98.032.153.064.306.096.459 1.263 6.061 7.759 9.538 13.452 7.104 11.511-4.921 22.163-11.619 31.566-19.808 4.375-3.811 4.515-10.595.295-14.577-.087-.082-.174-.164-.261-.247-3.697-3.493-9.429-3.653-13.263-.313z" fill="#3cd3d3"/><path id="XMLID_52_" d="m316.014 150.014h-46.597c14.688-4.152 25.445-17.653 25.445-33.658 0-2.332-.231-4.604-.664-6.806h10.325c4.624 0 8.646 3.147 9.762 7.63l6.605 26.591c.784 3.177-1.608 6.243-4.876 6.243z" fill="#ffc751"/></g><g><g><path d="m410.777 437.498c-.707-10.466-3.785-20.383-9.148-29.475-15.434-26.156-49.27-34.879-75.42-19.448-21.637 12.765-28.854 40.752-16.089 62.39 1.399 2.371 3.899 3.69 6.467 3.69 1.296 0 2.607-.335 3.804-1.042 3.568-2.104 4.754-6.703 2.649-10.271-8.563-14.513-3.722-33.287 10.791-41.849 19.031-11.227 43.649-4.88 54.878 14.151 4.165 7.059 6.555 14.751 7.102 22.862.279 4.133 3.866 7.262 7.988 6.978 4.132-.277 7.256-3.854 6.978-7.986z" fill="#ffe059"/><path d="m319.005 424.4c.778-6.835 3.844-13.352 8.881-18.328 2.422-2.392 2.82-6.158 1.046-9.064-.029-.047-.057-.094-.086-.141-2.488-4.075-8.133-4.8-11.526-1.442-7.559 7.481-12.129 17.293-13.234 27.572-.551 5.125 4.25 9.199 9.243 7.917.049-.013.098-.025.147-.038 3.022-.776 5.176-3.374 5.529-6.476z" fill="#fff370"/><path d="m410.777 437.498c-.707-10.466-3.785-20.383-9.148-29.475-7.094-12.023-18.079-20.352-30.417-24.352-3.958-1.283-8.168 1.135-9.191 5.168-.982 3.869 1.111 7.93 4.898 9.195 8.839 2.953 16.694 8.974 21.79 17.612 4.165 7.059 6.555 14.751 7.102 22.862.279 4.133 3.866 7.262 7.988 6.978 4.132-.279 7.256-3.856 6.978-7.988z" fill="#ffaf40"/><path d="m394.44 415.454c-.037.036-.075.072-.112.108-2.185 2.095-2.844 5.287-1.765 8.115 1.809 4.74 2.902 9.699 3.248 14.83.279 4.133 3.866 7.262 7.988 6.978 4.133-.279 7.257-3.855 6.979-7.988-.455-6.733-1.895-13.237-4.293-19.441-1.899-4.911-8.245-6.247-12.045-2.602z" fill="#ff993a"/><path d="m319.708 493.965c-17.287-4.457-31.803-15.38-40.874-30.756-19.471-33-14.547-74.931 11.858-102.474 14.545-14.323 24.991-32.366 30.22-52.645 6.182-23.974 2.658-48.92-9.923-70.244-12.58-21.323-32.712-36.471-56.686-42.653-40.392-10.421-81.729 13.971-92.145 54.364-8.54 33.115 11.455 67.003 44.569 75.542 13.221 3.411 26.979 1.467 38.739-5.472 11.759-6.938 20.114-18.041 23.523-31.262 5.836-22.636-7.83-45.799-30.465-51.636-4.01-1.035-8.101 1.378-9.135 5.39-1.034 4.011 1.379 8.101 5.39 9.135 14.626 3.771 23.457 18.74 19.685 33.366-2.409 9.341-8.311 17.186-16.62 22.088-8.309 4.901-18.027 6.276-27.371 3.866-25.106-6.474-40.264-32.167-33.791-57.273 4.045-15.687 13.958-28.86 27.911-37.092 13.953-8.231 30.276-10.538 45.964-6.493 20.094 5.182 36.968 17.878 47.512 35.751 10.545 17.873 13.498 38.782 8.316 58.876-6.602 25.602-22.778 47.101-45.551 60.537-22.772 13.435-49.412 17.199-75.016 10.597-29.456-7.596-55.125-25.589-72.278-50.664-16.994-24.842-24.535-54.906-21.234-84.652.457-4.117-2.51-7.825-6.627-8.281-4.119-.462-7.825 2.511-8.281 6.627-3.697 33.313 4.742 66.972 23.762 94.775 19.204 28.074 47.939 48.217 80.913 56.72 9.492 2.448 19.106 3.658 28.657 3.658 16.639 0 33.08-3.686 48.33-10.893-11.156 28.176-9.276 60.727 6.852 88.063 11.108 18.827 28.882 32.201 50.048 37.659.629.162 1.258.239 1.878.239 3.339 0 6.386-2.247 7.258-5.629 1.036-4.01-1.378-8.099-5.388-9.134z" fill="#ffc751"/><path d="m220.545 378.135c-6.842.695-13.767.673-20.682-.088-3.269-.36-6.399 1.387-7.718 4.401-.021.047-.041.094-.062.141-2.003 4.577 1.004 9.793 5.968 10.354 4.228.478 8.46.718 12.679.718 3.821 0 7.631-.198 11.419-.587 4.36-.448 7.344-4.634 6.433-8.921-.013-.06-.025-.12-.038-.179-.786-3.703-4.233-6.222-7.999-5.839z" fill="#ffaf40"/><path d="m132.88 354.716c1.565-3.08.943-6.841-1.578-9.203-6.611-6.192-12.576-13.121-17.76-20.699-7.769-11.357-13.556-23.806-17.238-36.817-1.482-5.237-7.946-7.118-12.067-3.563-2.209 1.906-3.125 4.922-2.33 7.73 4.119 14.532 10.578 28.436 19.254 41.119 5.884 8.602 12.664 16.457 20.186 23.462 3.568 3.323 9.324 2.318 11.533-2.029z" fill="#fff370"/><path d="m108.616 316.995c-2.172-3.736-4.144-7.569-5.911-11.483-1.771-3.923-6.47-5.543-10.263-3.508-.044.024-.089.048-.133.071-3.443 1.847-4.858 6.041-3.253 9.603 1.973 4.38 4.173 8.67 6.6 12.851 2.276 3.921 7.54 4.832 11.062 1.977.042-.034.085-.069.127-.103 2.813-2.28 3.591-6.278 1.771-9.408z" fill="#fff7c7"/><path d="m260.683 290.469c-3.499-1.89-7.795-.547-9.746 2.919-3.076 5.465-7.547 10.049-13.092 13.321-8.309 4.901-18.027 6.276-27.371 3.866-7.82-2.017-14.669-5.901-20.2-11.051-2.546-2.371-6.414-2.607-9.26-.606l-.123.086c-3.856 2.711-4.271 8.3-.822 11.512 7.299 6.796 16.338 11.921 26.658 14.582 13.221 3.411 26.979 1.467 38.739-5.472 7.718-4.553 13.962-10.905 18.308-18.469 2.161-3.761.859-8.557-2.958-10.617-.044-.023-.088-.047-.133-.071z" fill="#fff370"/><path d="m250.246 305.477c-2.631-2.533-6.669-2.723-9.629-.583-.89.643-1.814 1.249-2.772 1.815-4.63 2.731-9.698 4.362-14.895 4.855-2.974.283-5.482 2.355-6.341 5.216-.016.054-.033.108-.049.162-1.51 5.022 2.485 10.057 7.707 9.573 7.397-.685 14.612-3 21.2-6.887 1.393-.822 2.736-1.703 4.028-2.64 3.766-2.731 4.21-8.18.859-11.407-.036-.035-.072-.069-.108-.104z" fill="#fff7c7"/><path d="m298.07 245.468c3.422 5.8 6.039 11.921 7.84 18.229 1.109 3.884 5.177 6.115 9.064 5.018 4.046-1.141 6.465-5.349 5.297-9.388-2.149-7.432-5.248-14.644-9.283-21.482-8.231-13.952-19.703-25.246-33.362-33.125-3.809-2.197-8.686-.74-10.671 3.184-1.777 3.512-.429 7.75 2.986 9.708 11.522 6.608 21.197 16.107 28.129 27.856z" fill="#fff370"/><path d="m294.087 492.063c.037-.035.075-.07.112-.106 3.25-3.058 3.116-8.283-.327-11.121-5.926-4.885-11.019-10.815-15.038-17.627-8.695-14.736-12.515-31.251-11.737-47.472.238-4.956-4.472-8.68-9.263-7.39-3.29.886-5.6 3.815-5.745 7.219-.804 18.895 3.701 38.107 13.825 55.266 4.927 8.351 11.173 15.619 18.44 21.605 2.855 2.35 7.039 2.159 9.733-.374z" fill="#fff370"/><path d="m271.551 447.349c-2.089-6.141-3.448-12.443-4.096-18.784-.431-4.218-4.328-7.208-8.515-6.546-.051.008-.102.016-.153.024-3.896.615-6.66 4.153-6.257 8.077.764 7.442 2.366 14.838 4.82 22.045 1.498 4.4 6.568 6.396 10.642 4.158.044-.024.088-.048.132-.073 3.159-1.734 4.588-5.489 3.427-8.901z" fill="#fff7c7"/></g><g><path d="m397.335 260.918c-.537 0-1.082-.058-1.629-.179-4.044-.896-6.597-4.9-5.7-8.944 2.814-12.704 12.85-22.705 25.565-25.479 4.056-.885 8.044 1.683 8.927 5.729.883 4.047-1.683 8.043-5.729 8.926-7.022 1.532-12.564 7.054-14.118 14.067-.775 3.498-3.876 5.88-7.316 5.88z" fill="#ffaf40"/></g><g><path d="m412.942 243.348c1.759-1.101 3.715-1.914 5.804-2.372 3.742-.821 6.344-4.432 5.87-8.234-.553-4.443-4.762-7.361-9.046-6.426-3.927.857-7.598 2.403-10.88 4.506-4.203 2.694-4.609 8.705-.738 11.857.116.094.232.189.348.283 2.48 2.011 5.937 2.079 8.642.386z" fill="#ffe059"/></g><g><path d="m413.461 311.727c-3.488 0-7.004-.38-10.499-1.154-15.188-3.364-28.156-12.441-36.518-25.56-8.36-13.118-11.112-28.707-7.748-43.895 4.271-19.282 16.515-36.039 33.593-45.975 3.58-2.083 8.171-.87 10.254 2.711s.869 8.171-2.711 10.254c-13.468 7.835-23.123 21.048-26.491 36.252-2.497 11.276-.454 22.85 5.753 32.59 6.207 9.739 15.836 16.479 27.112 18.976 9.981 2.211 20.246-.246 28.162-6.738 3.202-2.625 7.929-2.16 10.555 1.043 2.627 3.203 2.16 7.928-1.043 10.555-8.729 7.161-19.427 10.94-30.419 10.941z" fill="#ffe059"/></g><g><path d="m434.148 289.368c-7.886 6.358-18.053 8.75-27.942 6.559-3.719-.824-7.256-2.114-10.551-3.819-2.681-1.387-5.953-.913-8.219 1.082-.038.034-.077.068-.115.102-3.908 3.442-3.168 9.777 1.46 12.163 4.43 2.285 9.185 4.011 14.181 5.118 3.495.774 7.011 1.154 10.499 1.154 10.992 0 21.69-3.78 30.419-10.938 3.291-2.699 3.694-7.614.819-10.816-2.708-3.017-7.396-3.149-10.551-.605z" fill="#ffaf40"/></g><g><path d="m444.699 289.973c-2.699-3.007-7.383-3.164-10.526-.625-1.567 1.266-3.224 2.373-4.952 3.319-2.676 1.465-4.19 4.417-3.794 7.441.007.05.013.101.02.151.679 5.19 6.34 8.103 10.933 5.592 2.622-1.433 5.133-3.123 7.499-5.063 3.292-2.699 3.694-7.614.82-10.815z" fill="#ff993a"/></g><g><path d="m405.235 374.26c-7.733 0-15.485-.842-23.126-2.534-4.044-.896-6.597-4.9-5.7-8.945.896-4.043 4.897-6.592 8.944-5.701 16.617 3.681 33.85 2.685 49.837-2.88 3.917-1.363 8.188.707 9.549 4.617 1.362 3.912-.705 8.187-4.617 9.549-11.261 3.92-23.05 5.894-34.887 5.894z" fill="#ffe059"/></g><g><path d="m421.333 357.826c-6.145 1.102-12.388 1.57-18.635 1.397-2.846-.079-5.507 1.415-6.832 3.934-.025.048-.05.095-.075.143-2.556 4.856.808 10.749 6.293 10.913 1.051.031 2.102.047 3.152.047 6.335 0 12.656-.566 18.89-1.693 4.133-.747 6.764-4.856 5.802-8.944l-.057-.241c-.903-3.838-4.658-6.252-8.538-5.556z" fill="#fff370"/></g></g></g></svg>